<?xml version="1.0" encoding="utf-8"?>
<!-- Generator: Adobe Illustrator 24.1.2, SVG Export Plug-In . SVG Version: 6.00 Build 0)  -->
<svg version="1.1" id="Capa_1" xmlns="http://www.w3.org/2000/svg" xmlns:xlink="http://www.w3.org/1999/xlink" x="0px" y="0px"
	 viewBox="0 0 512 512" style="enable-background:new 0 0 512 512;" xml:space="preserve">
<style type="text/css">
	.st0{fill:#08BFCB;}
	.st1{fill:#B19250;}
</style>
<path class="st0" d="M16.9,67.9c20.1,0,40.1,0,60.2,0c0,20.2,0,40.3,0,60.5c-20,0-40.1,0-60.2,0C16.9,108.3,16.9,88.1,16.9,67.9z"/>
<path class="st0" d="M95.8,128.4c0-20.2,0-40.3,0-60.5c20.1,0,40.1,0,60.2,0c0,20.1,0,40.3,0,60.5C136,128.4,115.9,128.4,95.8,128.4
	z"/>
<path class="st0" d="M234.9,128.5c-20.1,0-40.1,0-60.2,0c0-20.2,0-40.3,0-60.6c20,0,40.1,0,60.2,0
	C234.9,88.1,234.9,108.3,234.9,128.5z"/>
<path class="st1" d="M276.2,128.1c0-20.1,0-40.2,0-60.2c20.2,0,40.3,0,60.5,0c0,20,0,40.1,0,60.2
	C316.6,128.1,296.4,128.1,276.2,128.1z"/>
<path class="st1" d="M355.4,67.9c20.2,0,40.3,0,60.5,0c0,20.1,0,40.1,0,60.3c-20.1,0-40.3,0-60.5,0
	C355.4,108.1,355.4,88.1,355.4,67.9z"/>
<path class="st1" d="M434.6,67.9c20.2,0,40.3,0,60.5,0c0,20.1,0,40.1,0,60.2c-20.1,0-40.3,0-60.5,0C434.6,108.1,434.6,88,434.6,67.9
	z"/>
<path class="st0" d="M16.9,146.8c20.1,0,40.2,0,60.3,0c0,20.2,0,40.3,0,60.5c-20,0-40.1,0-60.3,0C16.9,187.2,16.9,167,16.9,146.8z"
	/>
<path class="st0" d="M234.9,207.4c-20.1,0-40.1,0-60.2,0c0-20.2,0-40.3,0-60.5c20,0,40.1,0,60.2,0
	C234.9,166.9,234.9,187.1,234.9,207.4z"/>
<path class="st1" d="M336.7,207.1c-20.2,0-40.3,0-60.5,0c0-20.1,0-40.1,0-60.2c20.1,0,40.3,0,60.5,0
	C336.7,166.8,336.7,186.9,336.7,207.1z"/>
<path class="st1" d="M495.2,207.1c-20.2,0-40.3,0-60.5,0c0-20.1,0-40.1,0-60.3c20.1,0,40.3,0,60.5,0
	C495.2,166.9,495.2,186.9,495.2,207.1z"/>
<path class="st0" d="M77.1,286.3c-20.1,0-40.2,0-60.2,0c0-20.2,0-40.3,0-60.5c20,0,40.1,0,60.2,0C77.1,245.9,77.1,266,77.1,286.3z"
	/>
<path class="st1" d="M276.2,226c20.2,0,40.3,0,60.5,0c0,20.1,0,40.1,0,60.2c-20.1,0-40.3,0-60.5,0
	C276.2,266.2,276.2,246.2,276.2,226z"/>
<path class="st1" d="M355.4,286.3c0-20.1,0-40.1,0-60.2c20.2,0,40.3,0,60.5,0c0,20,0,40.1,0,60.2
	C395.8,286.3,375.7,286.3,355.4,286.3z"/>
<path class="st1" d="M434.6,226c20.2,0,40.3,0,60.5,0c0,20.1,0,40.1,0,60.2c-20.1,0-40.3,0-60.5,0
	C434.6,266.2,434.6,246.2,434.6,226z"/>
<path class="st0" d="M16.9,304.6c20.1,0,40.2,0,60.3,0c0,20.2,0,40.3,0,60.5c-20,0-40.1,0-60.3,0C16.9,345.1,16.9,324.9,16.9,304.6z
	"/>
<path class="st0" d="M174.7,304.6c20.1,0,40.2,0,60.3,0c0,20.2,0,40.3,0,60.5c-20,0-40.1,0-60.3,0
	C174.7,345.1,174.7,324.9,174.7,304.6z"/>
<path class="st1" d="M276.2,364.9c0-20.1,0-40.2,0-60.2c20.2,0,40.3,0,60.5,0c0,20,0,40.1,0,60.2
	C316.6,364.9,296.4,364.9,276.2,364.9z"/>
<path class="st1" d="M276.2,383.3c20.2,0,40.3,0,60.5,0c0,20.1,0,40.1,0,60.3c-20.1,0-40.3,0-60.5,0
	C276.2,423.5,276.2,403.5,276.2,383.3z"/>
<path class="st0" d="M16.8,444.1c0-20.2,0-40.3,0-60.5c20.1,0,40.1,0,60.2,0c0,20.1,0,40.3,0,60.5C57.1,444.1,37,444.1,16.8,444.1z"
	/>
<path class="st0" d="M156,444.1c-20.1,0-40.2,0-60.3,0c0-20.2,0-40.3,0-60.5c20,0,40.1,0,60.3,0C156,403.7,156,423.9,156,444.1z"/>
<path class="st0" d="M235,444c-20.2,0-40.3,0-60.3,0c0-20.2,0-40.3,0-60.5c0.5,0,1,0,1.5,0c18.8,0,37.7,0,56.5,0
	c2,0,2.3,0.3,2.3,2.3c0,19,0,38,0,56.9C235,443.2,235,443.6,235,444z"/>
</svg>
