<svg id="Layer_1" data-name="Layer 1" xmlns="http://www.w3.org/2000/svg" viewBox="0 0 758.43 251.15"><defs><style>.cls-1{fill:#23c4bb;}.cls-2{fill:#b29350;}.cls-3{fill:#41c9bf;}</style></defs><rect class="cls-1" x="727.08" y="97.33" width="31.36" height="31.36"/><rect class="cls-1" x="694.72" y="97.33" width="31.36" height="31.36"/><rect class="cls-1" x="662.37" y="97.33" width="31.36" height="31.36"/><rect class="cls-1" x="630.01" y="97.33" width="31.36" height="31.36"/><rect class="cls-1" x="598.71" y="129.47" width="31.36" height="31.36"/><rect class="cls-1" x="598.71" y="161.61" width="31.36" height="31.36"/><rect class="cls-1" x="566.51" y="161.61" width="31.36" height="31.36"/><rect class="cls-1" x="534.31" y="161.61" width="31.36" height="31.36"/><rect class="cls-1" x="538.91" y="102.81" width="31.36" height="31.36"/><rect class="cls-1" x="538.91" y="70.15" width="31.36" height="31.36"/><rect class="cls-1" x="477.08" y="64.96" width="31.36" height="31.36"/><rect class="cls-1" x="477.08" y="97.51" width="31.36" height="31.36"/><rect class="cls-1" x="444.23" y="64.96" width="31.36" height="31.36"/><rect class="cls-1" x="444.53" y="97.51" width="31.36" height="31.36"/><rect class="cls-1" x="411.97" y="97.51" width="31.36" height="31.36"/><rect class="cls-2" x="358.69" y="63.76" width="31.36" height="31.36"/><rect class="cls-2" x="326.14" y="63.76" width="31.36" height="31.36"/><rect class="cls-2" x="293.58" y="63.76" width="31.36" height="31.36"/><rect class="cls-2" x="325.84" y="128.44" width="31.36" height="31.36"/><rect class="cls-2" x="293.58" y="128.44" width="31.36" height="31.36"/><rect class="cls-2" x="293.58" y="160.75" width="31.36" height="31.36"/><rect class="cls-2" x="261.03" y="63.76" width="31.36" height="31.36"/><rect class="cls-2" x="261.03" y="31.36" width="31.36" height="31.36"/><rect class="cls-2" x="228.77" y="31.36" width="31.36" height="31.36"/><rect class="cls-2" x="196.82" y="31.36" width="31.36" height="31.36"/><rect class="cls-2" x="261.03" y="96.17" width="31.36" height="31.36"/><rect class="cls-2" x="228.27" y="96.17" width="31.36" height="31.36"/><rect class="cls-2" x="195.5" y="96.17" width="31.36" height="31.36"/><rect class="cls-2" x="162.74" y="96.17" width="31.36" height="31.36"/><rect class="cls-2" x="129.98" y="96.17" width="31.36" height="31.36"/><rect class="cls-2" x="97.21" y="96.17" width="31.36" height="31.36"/><rect class="cls-2" x="97.21" y="128.44" width="31.36" height="31.36"/><rect class="cls-2" x="65.85" y="32.26" width="31.36" height="31.36"/><rect class="cls-2" x="165.46" width="31.36" height="31.36"/><rect class="cls-2" x="33.15" y="32.26" width="31.36" height="31.36"/><rect class="cls-2" x="65.85" y="64.81" width="31.36" height="31.36"/><rect class="cls-2" y="128.72" width="31.36" height="31.36"/><rect class="cls-2" x="97.21" y="160.72" width="31.36" height="31.36"/><rect class="cls-2" x="64.81" y="160.72" width="31.36" height="31.36"/><rect class="cls-2" x="32.4" y="160.72" width="31.36" height="31.36"/><rect class="cls-2" y="160.72" width="31.36" height="31.36"/><rect class="cls-1" x="411.97" y="130.14" width="31.36" height="31.36"/><rect class="cls-1" x="411.97" y="162.77" width="31.36" height="31.36"/><rect class="cls-1" x="538.91" y="37.48" width="31.36" height="31.36"/><rect class="cls-1" x="538.91" y="4.82" width="31.36" height="31.36"/><path class="cls-3" d="M274.06,390.15l8.89,39v.41h-7.68l-1.37-7.32h-7.74l-1.37,7.32h-7.68v-.52l8.95-38.93Zm-6.82,26.35h5.55L270,402.07Z" transform="translate(-41.18 -178.45)"/><path class="cls-2" d="M509.47,390.15l8.79,39v.41h-7.59l-1.36-7.32h-7.67l-1.35,7.32h-7.6v-.52l8.86-38.93Zm-6.76,26.35h5.5l-2.75-14.43Z" transform="translate(-41.18 -178.45)"/><path class="cls-2" d="M722.81,403.12V394a3.51,3.51,0,0,0-1.26-2.86,5.27,5.27,0,0,0-3.46-1.05H702.42a3.1,3.1,0,0,0-3.1,3.1v9.46a4.05,4.05,0,0,0,1.69,3.41l13.82,10.85v7h-7.54V416h-8v9.61a3.59,3.59,0,0,0,1.23,2.92,5.34,5.34,0,0,0,3.49,1h14.05a5.36,5.36,0,0,0,3.49-1,3.59,3.59,0,0,0,1.23-2.92v-9.2a4.17,4.17,0,0,0-1.7-3.44l-13.82-10.79v-6.39l4.79,0a3,3,0,0,1,1.39.22,2.08,2.08,0,0,1,1.36,2.17v4.88Z" transform="translate(-41.18 -178.45)"/><polygon class="cls-2" points="743.18 211.75 743.18 227.64 735.1 227.64 735.1 211.75 727.47 211.74 727.47 225.59 727.47 225.59 727.5 251.15 735.1 251.15 735.1 233.84 743.18 233.84 743.18 251.15 750.84 251.15 750.84 211.75 743.18 211.75"/><polygon class="cls-2" points="603.04 211.75 603.04 227.64 594.34 227.64 594.34 211.75 586.13 211.74 586.13 225.59 586.13 225.59 586.16 251.15 594.34 251.15 594.34 233.84 603.04 233.84 603.04 251.15 611.29 251.15 611.29 211.75 603.04 211.75"/><polygon class="cls-2" points="534.5 230.75 543.54 212.58 543.57 211.75 535.43 211.75 528.76 226.29 528.76 211.75 521.1 211.74 521.1 225.59 521.09 225.59 521.09 251.15 528.76 251.15 528.76 235.54 536.48 251.15 544.69 251.15 544.69 250.41 534.5 230.75"/><path class="cls-2" d="M445.66,391.17a5.41,5.41,0,0,0-3.54-1.05H423.25V429.6h8v-14h10.85a5.36,5.36,0,0,0,3.51-1,3.66,3.66,0,0,0,1.27-2.94V394.09A3.62,3.62,0,0,0,445.66,391.17Zm-6.81,18.64h-7.58V395.9h5.27a2.23,2.23,0,0,1,2.31,1.57Z" transform="translate(-41.18 -178.45)"/><polygon class="cls-3" points="307.95 211.75 300.59 232.49 293.26 211.75 292.2 211.75 292.2 211.73 285.55 211.73 285.55 216.82 285.55 224.41 285.55 251.15 293.5 251.15 293.5 232.21 298.36 247.63 302.81 247.63 307.68 232.21 307.68 251.15 315.62 251.15 315.62 211.75 307.95 211.75"/><path class="cls-3" d="M205.89,412.12h1.61c3-.07,4.51-1.4,4.51-4V394.09a3.65,3.65,0,0,0-1.19-2.92,5,5,0,0,0-3.39-1.05H189V429.6h7.75V395.93h5.09c1.68.06,2.5.86,2.45,2.42v9h-5.9v5.72l6.87,16.55h7.9v-.69Z" transform="translate(-41.18 -178.45)"/><polygon class="cls-3" points="89.7 245.23 89.7 233.94 99.93 233.94 99.93 228.11 89.7 228.11 89.7 217.67 101.58 217.67 101.58 211.75 91.25 211.75 91.28 211.73 81.96 211.73 81.96 216.68 81.96 221.58 81.96 251.15 101.78 251.15 101.78 245.23 89.7 245.23"/><path class="cls-3" d="M79.19,403.58v-9.44a3.57,3.57,0,0,0-1.27-2.92,5.33,5.33,0,0,0-3.53-1H57.81A2.84,2.84,0,0,0,55,393v32.62a3.56,3.56,0,0,0,1.24,2.92,5.25,5.25,0,0,0,3.46,1H74.36a5.51,5.51,0,0,0,3.56-1,3.53,3.53,0,0,0,1.27-2.92v-10H71.13v8.15H63V396h5.55c1.74,0,2.59.83,2.55,2.39v5.2Z" transform="translate(-41.18 -178.45)"/></svg>